<?xml version="1.0" standalone="no"?><!DOCTYPE svg PUBLIC "-//W3C//DTD SVG 1.1//EN" "http://www.w3.org/Graphics/SVG/1.1/DTD/svg11.dtd"><svg t="1650619391099" class="icon" viewBox="0 0 1024 1024" version="1.1" xmlns="http://www.w3.org/2000/svg" p-id="4735" xmlns:xlink="http://www.w3.org/1999/xlink" width="200" height="200"><defs><style type="text/css">@font-face { font-family: element-icons; src: url("chrome-extension://moombeodfomdpjnpocobemoiaemednkg/fonts/element-icons.woff") format("woff"), url("chrome-extension://moombeodfomdpjnpocobemoiaemednkg/fonts/element-icons.ttf ") format("truetype"); }
@font-face { font-family: feedback-iconfont; src: url("//at.alicdn.com/t/font_1031158_u69w8yhxdu.woff2?t=1630033759944") format("woff2"), url("//at.alicdn.com/t/font_1031158_u69w8yhxdu.woff?t=1630033759944") format("woff"), url("//at.alicdn.com/t/font_1031158_u69w8yhxdu.ttf?t=1630033759944") format("truetype"); }
</style></defs><path d="M512 1024a512 512 0 1 1 512-512 512 512 0 0 1-512 512z m209.28-789.76A148.1088 148.1088 0 0 1 512 179.2a148.1088 148.1088 0 0 1-209.28 55.04 114.0992 114.0992 0 0 0-81.024 139.776L363.264 704l2.048-0.64A116.48 116.48 0 0 0 358.4 742.4a115.2 115.2 0 0 0 115.2 115.2h76.8a115.2 115.2 0 0 0 115.2-115.2 116.48 116.48 0 0 0-6.912-39.04l2.048 0.64 141.568-329.984a114.0992 114.0992 0 0 0-81.024-139.776z m-83.712 433.024a115.2 115.2 0 0 0-58.496-36.352l20.736-145.024c13.312-75.776 27.648-148.224 30.208-157.824a63.7312 63.7312 0 0 1 123.136 32.896c-4.864 18.176-83.584 245.632-115.584 306.304z m-94.336-42.496c-0.128 0.896-0.384 1.664-0.512 2.432h-61.568c-0.128-0.384-0.128-0.64-0.256-1.024l-22.784-187.648C452.096 368 448 303.744 448 294.4a64 64 0 0 1 128 0c0 9.472-4.48 77.44-11.008 150.656zM270.848 360.96a63.7312 63.7312 0 0 1 123.136-32.896c2.56 9.6 16.896 82.048 30.208 157.824l20.736 145.024a115.2 115.2 0 0 0-58.496 36.352c-32-60.672-110.72-288.128-115.584-306.304zM473.6 678.4h76.8a64 64 0 0 1 0 128h-76.8a64 64 0 0 1 0-128z" fill="#0090FF" p-id="4736"></path></svg>