<?xml version="1.0" standalone="no"?><!DOCTYPE svg PUBLIC "-//W3C//DTD SVG 1.1//EN" "http://www.w3.org/Graphics/SVG/1.1/DTD/svg11.dtd"><svg t="1650619042779" class="icon" viewBox="0 0 1024 1024" version="1.1" xmlns="http://www.w3.org/2000/svg" p-id="1303" xmlns:xlink="http://www.w3.org/1999/xlink" width="200" height="200"><defs><style type="text/css">@font-face { font-family: element-icons; src: url("chrome-extension://moombeodfomdpjnpocobemoiaemednkg/fonts/element-icons.woff") format("woff"), url("chrome-extension://moombeodfomdpjnpocobemoiaemednkg/fonts/element-icons.ttf ") format("truetype"); }
@font-face { font-family: feedback-iconfont; src: url("//at.alicdn.com/t/font_1031158_u69w8yhxdu.woff2?t=1630033759944") format("woff2"), url("//at.alicdn.com/t/font_1031158_u69w8yhxdu.woff?t=1630033759944") format("woff"), url("//at.alicdn.com/t/font_1031158_u69w8yhxdu.ttf?t=1630033759944") format("truetype"); }
</style></defs><path d="M715.1 637.9L245.3 490.1c-10.5-3.3-16.4-14.6-13.1-25.1l76.7-243.7c3.3-10.5 14.6-16.4 25.1-13.1L803.8 356c10.5 3.3 16.4 14.6 13.1 25.1l-76.7 243.7c-3.3 10.5-14.6 16.4-25.1 13.1z" fill="#F9CC12" p-id="1304"></path><path d="M721.1 658.8c-4 0-8.1-0.6-12-1.9L239.3 509.2c-10.2-3.2-18.5-10.2-23.4-19.7-4.9-9.5-5.9-20.3-2.7-30.5l76.7-243.7c3.2-10.2 10.2-18.5 19.7-23.4 9.5-4.9 20.3-5.9 30.5-2.7L809.9 337c10.2 3.2 18.5 10.2 23.4 19.7 4.9 9.5 5.9 20.3 2.7 30.5l-76.7 243.7c-3.2 10.2-10.2 18.5-19.7 23.4-5.8 3-12.1 4.5-18.5 4.5zM251.4 471s0 0.1 0 0l469.8 147.8v-0.1L797.8 375 328 227.3v0.1L251.4 471z" fill="#444D68" p-id="1305"></path><path d="M848.8 802.9H228.3c-22 0-40-18-40-40V380.4c0-22 18-40 40-40h620.5c22 0 40 18 40 40V763c0 21.9-18 39.9-40 39.9z" fill="#186FED" p-id="1306"></path><path d="M848.8 822.9H228.3c-33.1 0-60-26.9-60-60V380.4c0-33.1 26.9-60 60-60h620.5c33.1 0 60 26.9 60 60V763c0 33-26.9 59.9-60 59.9zM228.3 360.4c-11 0-20 9-20 20V763c0 11 9 20 20 20h620.5c11 0 20-9 20-20V380.4c0-11-9-20-20-20H228.3z" fill="#444D68" p-id="1307"></path><path d="M888.8 490.7H675.6c-45.1 0-82 36.9-82 82s36.9 82 82 82h213.2v-164z" fill="#F9CC12" p-id="1308"></path><path d="M908.8 674.7H675.6c-56.2 0-102-45.8-102-102s45.8-102 102-102h233.2v204z m-233.2-164c-34.2 0-62 27.8-62 62s27.8 62 62 62h193.2v-124H675.6z" fill="#444D68" p-id="1309"></path><path d="M664.6 571.7m-23.9 0a23.9 23.9 0 1 0 47.8 0 23.9 23.9 0 1 0-47.8 0Z" fill="#444D68" p-id="1310"></path></svg>